# xmcd
#
# Track frame offsets:
#	150
#	10793
#	14449
#	28930
#	40548
#	49108
#	57765
#	66074
#	82464
#	87610
#	100322
#	111738
#	122130
#	132863
#	150437
#	167196
#	185348
#	197795
#	213606
#	227140
#	241071
#
# Disc length: 3334 seconds
#
# Revision: 0
# Processed by: cddbd v1.5.2PL0 Copyright (c) Steve Scherf et al.
# Submitted via: EZCDAudioConverter 2.1.7.1
#
DISCID=280d0415
DTITLE=Legendary Stardust Cowboy - An Anthology 1/2
DYEAR=1900
DGENRE=
TTITLE0=Paralyzed
TTITLE1=The Ledge Explains
TTITLE2=Who's Knocking On My Door?
TTITLE3=I Took A Trip On A Gemini Spaceship
TTITLE4=Down In The Wrecking Yard
TTITLE5=Kiss And Run
TTITLE6=Everything's Getting Bigger But Our Love
TTITLE7=I Walk A Hot Wind
TTITLE8=Crack Of Dawn
TTITLE9=My Underwear Froze To The Washing Line
TTITLE10=Radar
TTITLE11=Standing In A Trashcan (Thinking Of You)
TTITLE12=Dynamite
TTITLE13=Bladerunner
TTITLE14=Geiger Counter
TTITLE15=Stealth Cowboy
TTITLE16=Credit Card Blues
TTITLE17=I Hate CDs
TTITLE18=There'll Be Hot Coffee In The Old Bunkhouse
TTITLE19=There's Magic In Your Eyes
TTITLE20=Pahrump, Nevada
EXTD=
EXTT0=
EXTT1=
EXTT2=
EXTT3=
EXTT4=
EXTT5=
EXTT6=
EXTT7=
EXTT8=
EXTT9=
EXTT10=
EXTT11=
EXTT12=
EXTT13=
EXTT14=
EXTT15=
EXTT16=
EXTT17=
EXTT18=
EXTT19=
EXTT20=
PLAYORDER=
